<?xml version="1.0" encoding="utf-8"?>
<!-- Generator: Adobe Illustrator 27.5.0, SVG Export Plug-In . SVG Version: 6.00 Build 0)  -->
<svg version="1.1" xmlns="http://www.w3.org/2000/svg" xmlns:xlink="http://www.w3.org/1999/xlink" x="0px" y="0px"
	 viewBox="0 0 2200 2200" style="enable-background:new 0 0 2200 2200;" xml:space="preserve">
<g id="background">
	<rect style="fill:#FFFFFF;" width="2200" height="2200"/>
</g>
<g id="Objects">
	<linearGradient id="SVGID_1_" gradientUnits="userSpaceOnUse" x1="256.4082" y1="1100" x2="1943.5918" y2="1100">
		<stop  offset="0" style="stop-color:#549EFF"/>
		<stop  offset="1" style="stop-color:#5C32CF"/>
	</linearGradient>
	<path style="fill:url(#SVGID_1_);" d="M1696.51,503.49C1537.176,344.157,1325.331,256.408,1100,256.408
		S662.824,344.157,503.49,503.49C344.156,662.824,256.408,874.669,256.408,1100s87.748,437.176,247.082,596.51
		s371.178,247.082,596.51,247.082s437.176-87.748,596.51-247.082s247.082-371.178,247.082-596.51S1855.844,662.824,1696.51,503.49z
		 M1624.05,1624.05c-19.724,19.724-40.395,38.152-61.856,55.339c-14.754-128.977-71.169-255.582-107.393-282.761
		c-58.333-43.73-159.039-74.652-225.903-93.404c-9.505-25.26-15.96-51.647-19.163-78.443
		c76.753-40.938,137.007-122.02,147.126-217.628c32.484-21.391,59.332-98.708,59.332-120.458c0-25.337-20.546-45.882-45.882-45.882
		c-4.125,0-8.147,0.564-11.964,1.588c36.686-208.098-4.167-262.573-66.215-300.411c-52.467-31.997-132.039-42.602-203.165-40.86
		c-48.229,1.181-104.042,6.81-158.139,27.421c-56.583,21.558-90.151,82.645-101.09,142.182c-10.35,56.309-2.69,114.155,7.25,170.669
		c-2.383-0.384-4.817-0.589-7.301-0.589c-25.336,0-45.882,20.546-45.882,45.882c0,21.776,26.899,99.143,59.409,120.483
		c10.427,94.762,71.731,175.204,147.203,216.475c-3.177,27.181-9.684,53.952-19.316,79.571
		c-66.864,18.753-167.544,49.674-225.902,93.404c-36.224,27.179-92.639,153.784-107.393,282.761
		c-21.461-17.187-42.131-35.615-61.856-55.339C435.972,1484.07,358.882,1297.959,358.882,1100
		c0-197.961,77.09-384.071,217.068-524.05C715.93,435.972,902.041,358.882,1100,358.882s384.07,77.09,524.05,217.068
		c139.978,139.979,217.068,326.09,217.068,524.05C1841.118,1297.959,1764.028,1484.07,1624.05,1624.05z"/>
</g>
</svg>
